<?xml version="1.0" encoding="UTF-8" standalone="no"?>
<svg width="27px" height="37px" viewBox="0 0 27 37" version="1.1" xmlns="http://www.w3.org/2000/svg" xmlns:xlink="http://www.w3.org/1999/xlink">

    <title>SvgHonorsAssignment</title>
    <desc>Created with Sketch.</desc>
    <defs></defs>
    <g id="Page-1" stroke="none" stroke-width="1" fill="none" fill-rule="evenodd">
        <g id="View-profile---for-owner" transform="translate(-183.000000, -773.000000)" fill="#F7BB56">
            <g id="Achievements" transform="translate(148.000000, 643.000000)">
                <g id="Acheivement" transform="translate(30.000000, 126.000000)">
                    <g id="Group-2">
                        <g id="SvgHonorsAssignment" transform="translate(0.500000, 4.500000)">
                            <path d="M18.374573,1.69567368 C12.0795946,1.69567368 6.95803917,6.7801512 6.95803917,13.0304044 C6.95803917,19.2798097 12.0795946,24.3642872 18.374573,24.3642872 C20.4131177,24.3642872 22.3278297,23.8318457 23.9854817,22.8992252 L24.0273286,22.8754857 C27.4681735,20.9212218 29.7919608,17.2399143 29.7919608,13.0304044 C29.7919608,6.7801512 24.6704054,1.69567368 18.374573,1.69567368 L18.374573,1.69567368 Z M13.7372466,25.2206024 L13.7372466,33.5183816 L19.0577887,31.5217258 L23.9854817,33.4895551 L23.9854817,24.8085537 C22.2834206,25.6114552 20.381519,26.0599609 18.374573,26.0599609 C16.7433956,26.0599609 15.1805397,25.763218 13.7372466,25.2206024 L13.7372466,25.2206024 Z M25.6935208,36 L19.0372922,33.3411837 L12.0292075,35.9720214 L12.0292075,24.5711594 L12.2854133,24.5711594 C8.10669551,22.3888274 5.25,18.0343374 5.25,13.0304044 C5.25,5.845835 11.137611,0 18.374573,0 C25.612389,0 31.5,5.845835 31.5,13.0304044 C31.5,17.5264831 29.1941471,21.4985987 25.6935208,23.8411719 L25.6935208,36 Z M22.576691,19.02495 L21.0146891,14.1168225 L25.3044295,11.2019594 L20.0009679,11.2070465 L18.3527101,6.01998069 L16.7044523,11.2070465 L11.4009907,11.2019594 L15.690731,14.1168225 L14.1287292,19.02495 L18.3527101,16.0236075 L22.576691,19.02495 Z" id="Mask"></path>
                        </g>
                    </g>
                </g>
            </g>
        </g>
    </g>
</svg>